<?xml version="1.0"?>

<!DOCTYPE svg PUBLIC '-//W3C//DTD SVG 1.0//EN' 'http://www.w3.org/TR/2001/REC-SVG-20010904/DTD/svg10.dtd'>
<svg fill-opacity="1" xmlns:xlink="http://www.w3.org/1999/xlink" color-rendering="auto" color-interpolation="auto" text-rendering="auto" stroke="black" stroke-linecap="square" stroke-miterlimit="10" shape-rendering="auto" stroke-opacity="1" fill="black" stroke-dasharray="none" font-weight="normal" stroke-width="1" xmlns="http://www.w3.org/2000/svg" font-family="&apos;Dialog&apos;" font-style="normal" stroke-linejoin="miter" font-size="12" stroke-dashoffset="0" image-rendering="auto">
  <!--Unicode Character 'EAGLE' (U+1F985)-->
  <defs id="genericDefs" />
  <g>
    <g>
      <path d="M386.1562 226.5469 L383.625 226.5469 Q383.2031 226.5469 379.4062 225 L376.4531 225.2812 Q379.4062 229.7812 382.2188 234.1406 Q385.4531 239.625 385.4531 244.125 Q385.4531 244.8281 385.1719 246.1719 Q384.8906 247.5 384.8906 248.0625 Q381.2344 245.5312 373.5 240.75 Q373.2188 247.9219 371.8125 262.125 Q369 280.5469 357.1875 285.75 Q355.2188 286.1719 352.125 288.2812 Q351.4219 291.375 349.875 296.2969 Q347.7656 299.1094 344.1094 304.875 Q338.625 315 327.5156 319.9219 Q315.4219 325.4062 314.7188 326.25 Q320.2031 327.7969 328.9219 332.4375 Q323.5781 336.0938 313.0312 343.4062 Q315.7031 347.3438 318.2344 351.4219 Q321.6094 356.7656 321.6094 359.8594 Q321.6094 363.5156 318.5156 363.5156 Q317.25 363.5156 314.9219 363.2344 Q312.6094 362.9531 311.4844 362.9531 Q316.4062 375.4688 316.4062 378.7031 Q316.4062 381.375 312.75 381.375 Q311.7656 381.375 306 380.5312 L305.1562 381.0938 Q306.1406 386.1562 306.1406 389.8125 Q306.1406 399.2344 301.3594 399.2344 Q299.6719 399.2344 296.1562 396.9844 Q291.0938 393.8906 290.9531 393.8906 Q290.8125 394.3125 290.8125 404.2969 Q290.8125 407.6719 288.2812 407.6719 Q283.6406 407.6719 265.3594 391.5 Q264.5156 393.75 264.6562 395.5781 L263.3906 395.5781 Q262.125 395.5781 255.2344 390.6562 Q254.9531 392.3438 254.9531 397.5469 Q254.5312 397.4062 245.1094 390.2344 Q244.6875 391.5 244.8281 393.8906 Q242.4375 393.4688 236.9531 388.2656 Q236.5312 389.9531 236.6719 393.0469 Q233.2969 392.9062 227.6719 386.5781 Q227.1094 388.8281 227.25 393.4688 Q222.8906 391.2188 219.5156 384.8906 Q216.4219 378.9844 216.4219 373.7812 Q216.4219 362.8125 224.5781 353.1094 Q222.0469 349.5938 212.0625 327.375 Q209.5312 326.5312 206.8594 326.5312 Q206.5781 326.5312 205.875 326.75 Q205.1719 326.9531 204.8906 326.9531 Q202.2188 326.9531 190.9688 324.4219 Q160.875 317.6719 154.8281 302.7656 Q154.4062 300.9375 152.2969 297.8438 Q151.3125 297.1406 144.7031 296.2969 Q135.9844 295.1719 126.1406 288.4219 Q116.8594 281.9531 111.7969 274.2188 Q104.7656 273.7969 97.7344 273.375 Q87.75 272.3906 85.3594 269.4375 L86.4844 266.625 Q85.6406 266.4844 79.5938 266.4844 Q77.9062 266.4844 66.2344 264.5156 Q54.5625 262.5469 54.1406 262.2656 Q53.2969 261.5625 51.6094 260.1562 Q58.0781 257.4844 69.8906 250.3125 Q68.625 249.4688 66.7969 249.0469 Q56.1094 246.9375 45.2812 244.8281 Q31.7812 241.4531 26.8594 234.8438 Q34.7344 233.4375 40.2188 231.6094 L39.7969 230.7656 Q34.0312 227.6719 23.9062 218.6719 L25.3125 217.4062 Q27.4219 217.4062 31.7031 217.5469 Q36 217.6875 38.1094 217.6875 Q43.4531 217.6875 47.1094 216.5625 Q39.5156 211.2188 31.9219 206.0156 Q23.2031 199.5469 17.8594 193.9219 L17.8594 192.6562 Q18.5625 192.0938 19.2656 192.0938 Q21.375 192.0938 27.2031 193.9219 Q33.0469 195.75 35.1562 195.75 Q35.7188 195.75 41.4844 195.4688 Q38.8125 191.5312 32.9062 186.3281 Q25.3125 179.5781 23.625 177.75 Q9 162.1406 9 159.75 L9 157.6406 L11.5312 157.6406 Q45.2812 176.9062 73.6875 184.7812 L75.0938 184.5 L66.2344 172.4062 Q67.2188 170.5781 68.3438 170.5781 Q68.2031 170.5781 73.4062 172.5469 Q76.0781 173.5312 90.4219 176.7656 Q118.4062 183.0938 146.1094 197.1562 Q167.2031 207.8438 185.3438 220.9219 Q189.5625 224.2969 198 230.625 Q198.5625 231.0469 199.5469 231.0469 Q197.1562 231.0469 219.7969 224.7188 Q225.8438 223.7344 237.6562 221.2031 Q243.1406 219.7969 252.7031 216.2812 Q271.4062 209.3906 280.9688 197.4375 Q285.3281 190.125 294.6094 175.9219 Q303.75 163.4062 319.5 158.0625 Q319.3594 158.7656 317.25 163.4062 Q315.8438 166.7812 315.9844 169.0312 L316.4062 169.1719 Q324.5625 166.2188 332.5781 163.2656 Q342.1406 160.0312 349.4531 160.0312 Q355.0781 160.0312 362.25 162.5625 Q362.1094 163.5469 361.2656 164.25 Q360.9844 164.5312 357.3281 166.6406 Q350.8594 170.4375 345.9375 176.0625 Q346.2188 176.625 359.0156 179.4375 Q372.6562 182.5312 377.2969 188.1562 Q374.3438 191.1094 368.0156 193.2188 Q360.2812 195.8906 358.1719 197.1562 Q362.1094 198.9844 369.4219 203.625 Q378.9844 211.2188 383.4844 218.8125 Q384.0469 220.0781 385.4531 222.6094 Q386.1562 223.5938 386.1562 223.875 L386.1562 226.5469 ZM368.7188 228.0938 Q364.7812 222.75 358.7344 219.7969 Q352.9688 217.2656 347.2031 214.5938 Q350.5781 212.0625 365.0625 213.0469 Q356.7656 202.7812 336.2344 201.5156 Q338.4844 196.0312 351.7031 188.1562 Q343.8281 187.1719 340.5938 187.1719 Q335.8125 187.1719 333.5625 187.7344 Q325.8281 189.7031 327.6562 189.7031 Q325.6875 189.7031 325.6875 187.4531 Q325.6875 184.9219 331.0312 178.5938 Q334.8281 174.2344 338.4844 169.875 Q334.6875 170.5781 326.9531 173.5312 Q325.125 174.6562 313.1719 184.5 Q302.2031 193.6406 301.3594 193.6406 Q300.0938 193.6406 300.0938 189.7031 Q300.0938 188.1562 301.2188 181.5469 Q298.4062 184.9219 295.1719 192.7969 Q291.9375 200.6719 289.4062 203.9062 Q279.7031 216.1406 253.9688 228.375 Q249.75 230.4844 241.0312 233.4375 Q236.9531 233.7188 233.0156 233.8594 Q227.8125 234.2812 226.2656 237.0938 Q226.9688 237.0938 228.4375 236.9531 Q229.9219 236.8125 230.625 236.8125 Q233.8594 236.8125 233.8594 238.7812 Q233.8594 240.3281 229.7812 243.4219 Q238.7812 245.3906 238.7812 248.7656 Q238.7812 247.9219 233.1562 255.6562 Q238.5 259.4531 238.7812 263.6719 Q236.9531 264.5156 231.0469 266.4844 Q236.3906 271.5469 236.3906 273.9375 Q236.3906 276.1875 231.6094 276.1875 L229.9219 276.1875 L229.9219 283.5 Q224.1562 280.9688 221.4844 280.9688 Q217.8281 280.9688 216 281.5312 Q216.8438 284.625 222.1875 292.7812 Q226.5469 299.6719 226.5469 304.7344 Q226.5469 308.5312 226.3281 315.9219 Q226.125 323.2969 226.125 327.0938 Q226.125 339.1875 232.0312 347.625 Q232.7344 345.6562 234.2812 341.8594 L236.6719 342.2812 L236.6719 340.0312 Q236.6719 339.4688 236.1094 338.7656 Q235.5469 338.0625 235.5469 337.5 Q235.5469 336.2344 236.9531 334.9688 Q238.3594 336.0938 241.1719 338.0625 Q241.0312 337.0781 240.6094 334.7656 Q240.1875 332.4375 240.1875 331.1719 Q240.1875 326.9531 244.8281 326.9531 Q248.7656 326.9531 252.7031 333.7031 Q255.0938 338.9062 257.625 343.9688 L260.1562 342 L262.125 343.125 Q262.125 338.0625 262.6875 336.2344 Q264.0938 336.9375 267.0469 338.2031 Q267.1875 333.7031 268.0312 318.5156 Q268.7344 306.1406 268.7344 298.6875 Q268.7344 297.5625 268.0938 295.4531 Q267.4688 293.3438 267.4688 292.2188 Q267.4688 290.6719 269.4375 289.9688 Q272.1094 292.3594 280.9688 302.4844 Q285.3281 307.8281 289.6875 313.3125 Q295.5938 319.6406 301.0781 319.6406 Q314.2969 319.6406 328.6406 304.0312 Q342.9844 288.4219 342 275.2031 L342.5625 274.5 Q348.6094 275.3438 347.3438 275.3438 Q354.2344 275.3438 358.875 265.3594 Q362.6719 256.9219 362.6719 249.1875 Q362.6719 238.3594 355.7812 228.9375 Q359.0156 227.3906 360.9844 227.3906 Q364.9219 227.3906 368.7188 228.0938 ZM225.7031 251.1562 Q222.6094 251.0156 216.4219 250.3125 Q218.25 247.9219 221.3438 242.8594 L216.5625 242.8594 Q218.8125 242.8594 206.5781 244.4062 L206.2969 243.9844 Q206.2969 243.1406 208.6875 238.5 Q200.5312 240.75 198.2812 243.7031 Q194.0625 249.1875 192.5156 261.7031 Q192.6562 263.9531 191.9531 268.1719 Q191.6719 268.875 189.9844 271.2656 Q188.7188 273.0938 188.8594 274.5 L190.125 292.3594 Q195.1875 286.875 200.25 281.25 Q206.7188 274.3594 211.7812 272.3906 L212.0625 270.4219 Q214.0312 268.5938 217.9688 267.8906 Q217.5469 262.8281 217.5469 264.6562 Q217.5469 263.6719 217.9688 262.8281 Q219.6562 262.4062 222.8906 260.0156 Q220.3594 259.1719 219.2344 258.0469 Q220.5 256.3594 225.7031 251.1562 ZM307.8281 353.25 Q306.9844 350.5781 301.5 345.3125 Q296.0156 340.0312 294.75 337.3594 Q299.1094 336.9375 307.8281 335.6719 Q299.3906 330.3281 291.0938 324.8438 Q281.1094 318.5156 276.8906 311.2031 L274.5 311.2031 L275.0625 311.625 Q274.5 323.7188 274.5 321.6094 Q274.5 328.0781 276.75 341.7188 Q277.0312 343.4062 279 350.8594 Q280.5469 356.625 280.5469 360 Q280.5469 361.4062 276.6094 361.125 Q277.4531 366.1875 277.4531 364.6406 Q277.4531 366.3281 275.7656 366.3281 Q274.7812 366.3281 270.1406 363.9375 Q271.4062 365.9062 271.4062 367.875 Q271.4062 369.5625 269.8594 369.5625 Q269.8594 369.5625 265.6406 368.0156 Q265.6406 369.1406 265.4219 371.3125 Q265.2188 373.5 265.2188 374.625 Q265.2188 379.125 280.5469 391.9219 L280.5469 390.375 Q280.5469 388.4062 280.125 384.3281 Q279.7031 380.25 279.7031 378.2812 Q279.7031 373.0781 281.9531 371.1094 L295.1719 383.3438 Q294.8906 381.9375 292.5 373.6406 Q290.3906 366.4688 290.3906 364.9219 Q290.3906 363.9375 291.375 363.5156 Q295.5938 366.4688 304.0312 370.6875 Q303.4688 369.4219 298.6875 362.25 Q294.4688 355.7812 294.4688 354.6562 Q294.4688 353.8125 294.75 354.0938 Q299.25 353.25 307.8281 353.25 ZM217.2656 301.3594 Q217.2656 300.6562 206.1562 285.8906 Q201.7969 288.9844 199.125 294.4688 Q195.1875 302.2031 193.9844 303.8281 Q192.7969 305.4375 191.6719 305.4375 Q187.3125 305.4375 184.2188 293.9062 Q181.9688 285.0469 181.9688 278.5781 Q181.9688 273.0938 182.8125 271.125 Q183.7969 269.7188 185.3438 266.625 Q185.625 262.4062 186.4688 254.3906 Q186.75 252.5625 188.2969 247.5 Q189.5625 243 189.5625 240.4688 Q189.5625 239.2031 188.0156 237.9375 Q186.4688 236.6719 175.7812 229.6406 Q153.9844 215.2969 139.9219 208.125 Q115.5938 195.6094 100.2656 192.2344 Q103.6406 194.7656 104.9062 196.0312 Q107.8594 198.7031 108 200.8125 L107.7188 200.9531 L100.9688 200.9531 Q95.3438 200.9531 78.1875 195.0469 Q59.4844 188.5781 52.3125 187.7344 Q73.8281 201.2344 73.8281 203.625 Q73.8281 205.875 66.5156 206.4375 Q62.0156 206.7188 57.375 206.8594 Q52.0312 207.7031 52.7344 207.7031 Q54.1406 208.5469 64.8281 213.0469 Q73.8281 216.8438 75.0938 219.0938 Q72 221.625 66.2344 223.0312 Q57.5156 225.2812 56.8125 225.5625 Q63.7031 227.25 77.625 230.9062 L77.625 232.0312 Q75.6562 234.1406 71.2969 235.4062 Q67.6406 236.3906 64.125 237.375 Q76.5 239.625 99.5625 239.625 L100.6875 240.6094 Q99.8438 244.125 79.1719 256.5 Q89.2969 257.4844 87.75 257.4844 Q91.6875 257.4844 99.4219 256.1562 Q107.1562 254.8125 111.0938 254.8125 Q112.7812 254.8125 114.0469 254.9531 L114.0469 256.3594 Q114.0469 258.4688 106.7344 264.2344 Q110.1094 264.7969 109.8281 264.7969 Q111.2344 264.7969 113.9062 264.1719 Q116.5781 263.5312 117.9844 263.5312 Q119.5312 265.5 122.2031 268.7344 Q136.125 285.6094 158.9062 286.0312 Q168.3281 299.25 171.7031 302.9062 Q180.2812 312.0469 189.4219 313.3125 Q191.1094 313.5938 193.7812 314.1562 Q202.9219 316.2656 213.0469 316.2656 Q214.3125 314.7188 214.5938 311.7656 Q215.1562 307.125 215.2969 306.8438 Q217.2656 299.3906 217.2656 301.3594 ZM260.2969 386.8594 Q257.7656 379.9688 257.4844 374.9062 Q257.7656 380.8125 257.7656 361.6875 Q257.7656 359.8594 252.4219 352.125 Q237.5156 370.8281 237.5156 380.6719 Q237.5156 386.7188 241.875 388.5469 Q241.7344 389.6719 241.7344 381.6562 Q241.7344 378.2812 243.4219 376.4531 Q245.5312 383.3438 245.6719 383.7656 Q247.2188 387 250.875 389.3906 L250.875 387.9844 Q250.875 387.4219 250.6562 386.2188 Q250.4531 385.0312 250.4531 384.4688 Q250.4531 382.2188 251.1562 377.7188 Q253.125 380.3906 255.2344 383.2031 Q258.0469 386.8594 260.2969 386.8594 ZM237.9375 360.9844 Q237.9375 355.2188 236.1094 352.125 Q226.9688 361.2656 225.8438 362.9531 Q222.1875 368.2969 222.1875 377.4375 Q222.1875 380.9531 223.0312 384.0469 L224.4375 385.3125 Q226.8281 377.7188 229.2188 372.7969 Q229.6406 376.4531 230.0625 380.1094 Q231.0469 384.8906 233.8594 385.7344 Q233.8594 377.8594 234.9844 371.1094 Q235.5469 372.0938 236.3906 374.0625 Q237.9375 363.7969 237.9375 360.9844 ZM200.6719 272.5312 Q200.6719 278.1562 196.4531 281.3906 L193.3594 281.3906 Q192.9375 279.2812 192.9375 279.5625 Q192.9375 275.0625 198.7031 268.0312 Q200.6719 270.4219 200.6719 272.5312 ZM198 273.6562 L198 272.9531 Q195.3281 276.4688 195.3281 277.5938 L195.3281 279 Q198 277.1719 198 273.6562 Z" stroke="none" />
    </g>
  </g>
</svg>
